<?xml version="1.0" encoding="utf-8"?>
<!-- Generator: Adobe Illustrator 20.0.0, SVG Export Plug-In . SVG Version: 6.00 Build 0)  -->
<svg version="1.1" id="Ebene_1" xmlns="http://www.w3.org/2000/svg" xmlns:xlink="http://www.w3.org/1999/xlink" x="0px" y="0px"
	 viewBox="0 0 155 128" style="enable-background:new 0 0 155 128;" xml:space="preserve">
<g>
	<g>
		<path style="fill:#1D5CA4;" d="M8.3,96.9V86.3h1.4v9.4h4.7v1.3H8.3z"/>
		<path style="fill:#1D5CA4;" d="M21.9,93.2h-5.4c0,0.9,0.2,1.6,0.7,2c0.4,0.4,1,0.6,1.6,0.6c0.8,0,1.4-0.2,1.9-0.7l0.6,1
			c-0.2,0.2-0.5,0.4-1,0.5c-0.5,0.2-1.1,0.3-1.8,0.3c-0.9,0-1.8-0.3-2.4-1c-0.7-0.7-1.1-1.7-1.1-2.9c0-1.2,0.4-2.2,1.1-3
			c0.7-0.7,1.5-1,2.4-1c1.1,0,1.9,0.3,2.5,0.9c0.6,0.6,0.9,1.4,0.9,2.3C22,92.7,22,93,21.9,93.2z M18.6,90.3c-0.6,0-1.1,0.2-1.5,0.6
			c-0.4,0.4-0.6,0.8-0.7,1.4h4.2c0-0.5-0.2-1-0.5-1.4C19.8,90.5,19.3,90.3,18.6,90.3z"/>
		<path style="fill:#1D5CA4;" d="M24.5,96.9v-6.4h-1v-1.1h2.4v7.5H24.5z M25.1,86.5c0.2,0,0.4,0.1,0.6,0.2c0.2,0.2,0.2,0.4,0.2,0.6
			c0,0.2-0.1,0.4-0.2,0.6c-0.2,0.2-0.4,0.2-0.6,0.2c-0.2,0-0.4-0.1-0.6-0.2c-0.2-0.2-0.2-0.4-0.2-0.6c0-0.2,0.1-0.4,0.2-0.6
			C24.6,86.6,24.8,86.5,25.1,86.5z"/>
		<path style="fill:#1D5CA4;" d="M29.6,96.4l-0.5,0.7h-0.7V86.2h1.3v3.7c0.1-0.2,0.4-0.3,0.7-0.5c0.4-0.1,0.7-0.2,1-0.2
			c1,0,1.9,0.4,2.5,1.1c0.6,0.7,1,1.6,1,2.7c0,1.3-0.3,2.3-1,3c-0.6,0.7-1.5,1.1-2.6,1.1c-0.4,0-0.7-0.1-1.1-0.2
			C30,96.7,29.8,96.6,29.6,96.4z M29.8,90.9v4.4c0,0.1,0.2,0.2,0.5,0.4c0.3,0.2,0.6,0.3,0.8,0.3c0.9,0,1.6-0.2,2-0.7
			c0.4-0.4,0.6-1.2,0.6-2.2c0-0.9-0.2-1.5-0.7-2c-0.5-0.5-1.1-0.7-1.9-0.7c-0.2,0-0.4,0.1-0.7,0.2C30.1,90.7,29.9,90.8,29.8,90.9z"
			/>
		<path style="fill:#1D5CA4;" d="M41.5,96.9v-4.4c0-0.8-0.1-1.4-0.4-1.7c-0.2-0.3-0.6-0.5-1.2-0.5c-0.3,0-0.6,0.1-1,0.3
			c-0.3,0.2-0.6,0.4-0.8,0.7v5.6h-1.3v-7.5h0.9l0.4,1c0.4-0.7,1.2-1.1,2.2-1.1c1.7,0,2.5,1,2.5,3v4.7H41.5z"/>
		<path style="fill:#1D5CA4;" d="M45.6,96.9v-6.4h-1v-1.1h2.4v7.5H45.6z M46.1,86.5c0.2,0,0.4,0.1,0.6,0.2c0.2,0.2,0.2,0.4,0.2,0.6
			c0,0.2-0.1,0.4-0.2,0.6c-0.2,0.2-0.4,0.2-0.6,0.2c-0.2,0-0.4-0.1-0.6-0.2c-0.2-0.2-0.2-0.4-0.2-0.6c0-0.2,0.1-0.4,0.2-0.6
			C45.7,86.6,45.9,86.5,46.1,86.5z"/>
		<path style="fill:#1D5CA4;" d="M51.3,95.7h4.2v1.2h-6.3v-0.4l4.3-6h-4.2v-1.2h6.2v0.4L51.3,95.7z"/>
		<path style="fill:#1D5CA4;" d="M15.1,102.5l-0.6,1.2c-0.7-0.5-1.4-0.8-2.1-0.8c-1.1,0-1.9,0.4-2.6,1.1c-0.6,0.8-0.9,1.8-0.9,3
			c0,1.2,0.3,2.2,0.9,2.9c0.6,0.7,1.5,1.1,2.5,1.1c0.8,0,1.4-0.2,1.8-0.7V108h-1.4v-1.2h2.8v4.5c-0.4,0.3-0.9,0.6-1.6,0.8
			c-0.7,0.2-1.3,0.3-2,0.3c-1.4,0-2.5-0.5-3.4-1.4c-0.8-1-1.2-2.2-1.2-3.9c0-1.6,0.5-2.9,1.4-3.9c0.9-1,2.1-1.5,3.7-1.5
			C13.6,101.6,14.5,101.9,15.1,102.5z"/>
		<path style="fill:#1D5CA4;" d="M24.4,108.5H19c0,0.9,0.2,1.6,0.7,2c0.4,0.4,1,0.6,1.6,0.6c0.8,0,1.4-0.2,1.9-0.7l0.6,1
			c-0.2,0.2-0.5,0.4-1,0.5c-0.5,0.2-1.1,0.3-1.8,0.3c-1,0-1.8-0.3-2.4-1c-0.7-0.7-1.1-1.7-1.1-2.9c0-1.2,0.4-2.2,1.1-3
			c0.7-0.7,1.5-1,2.4-1c1.1,0,1.9,0.3,2.5,0.9c0.6,0.6,0.9,1.4,0.9,2.3C24.5,108,24.5,108.3,24.4,108.5z M21.2,105.6
			c-0.6,0-1.1,0.2-1.5,0.6c-0.4,0.4-0.6,0.8-0.7,1.4h4.2c0-0.5-0.2-1-0.5-1.4C22.3,105.8,21.8,105.6,21.2,105.6z"/>
		<path style="fill:#1D5CA4;" d="M35,112.1v-4.8c0-1.2-0.5-1.8-1.5-1.8c-0.3,0-0.6,0.1-0.9,0.3c-0.3,0.2-0.5,0.4-0.6,0.7v5.6h-1.3
			v-5.4c0-0.4-0.1-0.7-0.4-0.9c-0.3-0.2-0.6-0.3-1.1-0.3c-0.3,0-0.6,0.1-0.9,0.3c-0.3,0.2-0.5,0.4-0.6,0.7v5.6h-1.3v-7.5h0.9
			l0.4,0.9c0.5-0.7,1.2-1,1.9-1c1.1,0,1.8,0.3,2.3,1c0.2-0.3,0.4-0.5,0.8-0.7c0.4-0.2,0.8-0.3,1.3-0.3c0.8,0,1.4,0.2,1.8,0.7
			c0.4,0.5,0.6,1.1,0.6,1.9v5H35z"/>
		<path style="fill:#1D5CA4;" d="M45.2,108.5h-5.4c0,0.9,0.2,1.6,0.7,2c0.4,0.4,1,0.6,1.6,0.6c0.8,0,1.4-0.2,1.9-0.7l0.6,1
			c-0.2,0.2-0.5,0.4-0.9,0.5c-0.5,0.2-1.1,0.3-1.8,0.3c-1,0-1.8-0.3-2.4-1c-0.7-0.7-1.1-1.7-1.1-2.9c0-1.2,0.4-2.2,1.1-3
			c0.7-0.7,1.5-1,2.4-1c1.1,0,1.9,0.3,2.5,0.9c0.6,0.6,0.9,1.4,0.9,2.3C45.3,108,45.3,108.3,45.2,108.5z M42,105.6
			c-0.6,0-1.1,0.2-1.5,0.6c-0.4,0.4-0.6,0.8-0.7,1.4H44c0-0.5-0.2-1-0.5-1.4C43.1,105.8,42.6,105.6,42,105.6z"/>
		<path style="fill:#1D5CA4;" d="M47.9,112.1v-6.4h-1v-1.1h2.4v7.5H47.9z M48.4,101.7c0.2,0,0.4,0.1,0.6,0.2
			c0.2,0.2,0.2,0.4,0.2,0.6c0,0.2-0.1,0.4-0.2,0.6c-0.2,0.2-0.4,0.2-0.6,0.2c-0.2,0-0.4-0.1-0.6-0.2c-0.2-0.2-0.2-0.4-0.2-0.6
			c0-0.2,0.1-0.4,0.2-0.6C48,101.8,48.2,101.7,48.4,101.7z"/>
		<path style="fill:#1D5CA4;" d="M56.6,112.1v-4.4c0-0.8-0.1-1.4-0.4-1.7c-0.2-0.3-0.6-0.5-1.2-0.5c-0.3,0-0.6,0.1-1,0.3
			c-0.3,0.2-0.6,0.4-0.8,0.7v5.6H52v-7.5h0.9l0.4,1c0.4-0.7,1.2-1.1,2.2-1.1c1.7,0,2.5,1,2.5,3v4.7H56.6z"/>
		<path style="fill:#1D5CA4;" d="M60.2,111.7l0.5-1.3c0.7,0.5,1.3,0.7,1.8,0.7c0.8,0,1.2-0.3,1.2-1c0-0.5-0.4-0.9-1.2-1.3
			c-0.6-0.3-1-0.5-1.2-0.6c-0.2-0.1-0.4-0.3-0.6-0.5c-0.2-0.2-0.3-0.4-0.4-0.6c-0.1-0.2-0.1-0.4-0.1-0.7c0-0.6,0.2-1.1,0.7-1.5
			c0.5-0.3,1-0.5,1.8-0.5c0.6,0,1.2,0.2,2.1,0.5l-0.4,1.2c-0.5-0.4-1.1-0.6-1.6-0.6c-0.3,0-0.6,0.1-0.8,0.2
			c-0.2,0.2-0.3,0.3-0.3,0.6c0,0.5,0.3,0.8,0.8,1.1l1,0.4c0.6,0.3,1,0.6,1.3,0.9c0.3,0.3,0.4,0.8,0.4,1.3c0,0.7-0.2,1.2-0.7,1.6
			c-0.5,0.4-1.1,0.6-2,0.6C61.7,112.3,60.9,112.1,60.2,111.7z"/>
		<path style="fill:#1D5CA4;" d="M72.5,105.2l-0.7,0.9c-0.1-0.1-0.4-0.3-0.7-0.4c-0.3-0.1-0.7-0.2-1-0.2c-0.7,0-1.3,0.3-1.7,0.8
			c-0.4,0.5-0.6,1.2-0.6,2.1c0,0.9,0.2,1.6,0.7,2c0.4,0.5,1,0.7,1.8,0.7c0.6,0,1.2-0.2,1.8-0.7l0.5,1.1c-0.7,0.5-1.6,0.7-2.7,0.7
			c-1,0-1.9-0.3-2.6-1c-0.7-0.7-1-1.6-1-2.8c0-1.2,0.3-2.2,1-2.9c0.7-0.7,1.7-1.1,2.9-1.1c0.4,0,0.8,0.1,1.3,0.2
			C72,104.9,72.3,105,72.5,105.2z"/>
		<path style="fill:#1D5CA4;" d="M79.1,112.1v-4.7c0-0.6-0.1-1-0.4-1.3c-0.3-0.3-0.7-0.5-1.2-0.5c-0.3,0-0.7,0.1-1,0.3
			c-0.3,0.2-0.6,0.4-0.8,0.7v5.6h-1.3v-10.6h1.3v3.9c0.2-0.3,0.5-0.5,0.9-0.7c0.4-0.2,0.8-0.3,1.2-0.3c0.8,0,1.4,0.3,1.9,0.8
			c0.5,0.5,0.7,1.2,0.7,2.2v4.7H79.1z"/>
		<path style="fill:#1D5CA4;" d="M87.1,111.3c-0.5,0.7-1.4,1-2.5,1c-0.6,0-1.1-0.2-1.5-0.6c-0.4-0.4-0.6-1-0.6-1.6
			c0-0.8,0.3-1.4,1-1.9c0.7-0.5,1.5-0.8,2.6-0.8c0.3,0,0.6,0.1,1,0.2c0-1.2-0.5-1.8-1.6-1.8c-0.8,0-1.5,0.2-1.9,0.7l-0.6-1.1
			c0.3-0.2,0.6-0.4,1.1-0.5c0.4-0.1,0.9-0.2,1.3-0.2c1.1,0,1.9,0.2,2.4,0.7c0.5,0.5,0.7,1.3,0.7,2.4v2.7c0,0.7,0.2,1.1,0.6,1.3v0.7
			c-0.5,0-1-0.1-1.2-0.2C87.4,111.9,87.2,111.6,87.1,111.3z M86.9,108.4c-0.4-0.1-0.7-0.1-0.9-0.1c-0.7,0-1.2,0.2-1.7,0.5
			c-0.4,0.3-0.6,0.8-0.6,1.2c0,0.8,0.5,1.2,1.4,1.2c0.7,0,1.3-0.3,1.8-1V108.4z"/>
		<path style="fill:#1D5CA4;" d="M94.7,102.7c-0.3-0.1-0.5-0.1-0.8-0.1c-0.4,0-0.7,0.2-1,0.5c-0.3,0.3-0.4,0.7-0.4,1.2
			c0,0.1,0,0.3,0,0.4h1.5v1.1h-1.5v6.4h-1.3v-6.4h-1.1v-1.1h1.1c0-1,0.2-1.7,0.7-2.3c0.5-0.6,1.1-0.8,1.9-0.8c0.4,0,0.8,0.1,1.3,0.2
			L94.7,102.7z"/>
		<path style="fill:#1D5CA4;" d="M96.6,105.7h-0.9v-1.1h0.9V103l1.3-0.5v2.1h2.1v1.1h-2.1v3.7c0,0.6,0.1,1.1,0.3,1.4
			c0.2,0.3,0.6,0.4,1,0.4c0.3,0,0.7-0.1,1.1-0.3l0.2,1.2c-0.6,0.1-1.2,0.2-1.8,0.2c-0.6,0-1.1-0.2-1.5-0.7c-0.4-0.4-0.6-1-0.6-1.7
			V105.7z"/>
	</g>
</g>
<path style="fill:#20201E;" d="M70,42.3c-0.4,4.6,2.5,3.1,2.5,3.1c5.3-2.8,1-5.3,1-5.3S70.4,37.7,70,42.3z"/>
<g>
	<path style="fill:#20201E;" d="M110.6,70.7c0.7,0.9,2.5,2.5,6.8-1.6c4.3-4.1,2.1-2.4,4.6,2.9c2.5,5.3,3.9,2.3,4.1,1.3
		c0.3-2.6-0.6-7.7-1.1-9.8c-0.5-1.7-3.5-2.6-4.7-1.7c-1.1,0.8-4.1,4.3-6.1,4.9c-2,0.7-0.4-1.3-1-4.5c-0.6-3.2-1.8-4.6-3-4.1
		c-0.8,0.4-2.6,2.2-3.6,1.8c-2-0.8-4.7-3.1-10.1-0.3c-9.9,5-2.5-5.2-2.5-5.2s7.3-11.4,3.4-17.3c-3.7-5.7-10.4,4.4-12,7.5
		c-2.2,4.2-3.9,9.9-5.8,18.5c-1.1,5-7.1,6.9-8.7,4.9c-1.6-2.1-1.3-10.4-7-6.8c-5.7,3.6-5.5,10.6-9.1,2.7c-3.6-7.9-7.1-2.7-7.6-1.9
		c-0.6,1.2-0.3,3.7-1.2,4.3c-1.1,0.6-2.5-1.6-3.3-1.9c-0.9-0.3-6.6,4.5-9.2,9.6c-3.7,7.3-10.8-8.2-10.3-9.3
		c0.5-1,14.4-20.3,16.1-23.2c1.8-3,3.1-4,4.1-4.1c1.1-0.2,14.3-3.4,24.4-13.6c8.6-8.6,7.8-11.4,6-13.7c-0.5-0.7-1.3-1.2-2.4-1.6
		C66.1,6.9,54.2,17.9,53.1,19c-1.8,1.7-12.3,13.4-13,15C39.3,35.6,21,35.1,21,35.1c-2.1,1.1,0.3,1.9,0.3,1.9s8.3,1.1,13.4,0.8
		c4.5-0.2,1.9,2.7,1.2,3.5C32,46.3,25.4,56.8,22.9,59.7c-2.3,2.8-6.7,0.1-7.9-0.1c-1.3-0.2-8.2-1.2-6.6,4.6c1.6,5.8,6.9,3.1,9.2,3.6
		c0.7,0.2,2.3,0.9,2.7,1.8c0.9,1.9,2,4.1,2.9,5.6c1.6,2.4,8.4,9,13,0.1c5.1-9.8,8.7-6.2,9-0.9c0.4,5.2,2,3.3,3.9,2.4
		c1.9-0.9,0.2-4.5,0.4-9.2c0.1-4.8,4.4,2.4,4.5,4.3c0.1,1.4,2.6,1.6,5.2,0.5c2.6-1.1,0-3.1,3.6-6.5c3.6-3.3,4.2,4.3,5,6.2
		c0.7,1.5,4.2,4.3,6.2,0.3c1.8-3.5,5.5-2.3,5.6,2.7c0,4.2,3.1,5,4.2,5.1c0.4,0,0.9,0,1.5-0.3c2.3-0.9,5.9-6,5.9-10.4
		c-0.1-7.5,12.1-8.7,11.3-6.2c-0.6,1.8-3.3,7.3,0,7.1c3.3-0.1,1.9-3,4.9-6.2C110.6,60.9,109.4,69.2,110.6,70.7z M50,26.1
		c2.3-2.2,4-4,5.6-5.4c7.1-6.6,6.9-6,7.9-6.7c1.9-1.2,6.1-3.5,7.4-2.4c1.4,1.3,0.8,4-1.4,6.4c-2.3,2.5-8.9,9.2-14.8,12.4
		C50.8,32.7,35.1,40.6,50,26.1z M14.5,65.4c-0.8,0.3-3-1.5-2.9-2.4c0.2-1.9,2.2,0,4.5-0.1C18.4,62.8,15.3,65,14.5,65.4z M89.5,66.4
		c-0.7,2.8-2,7.3-3.1,8.7c-0.8,1-2.6,3.7-4-1.1c-1.4-4.8,2-8.9,2-8.9s1.4-1.9,2.4-1.9C87.9,63.2,90.2,63.6,89.5,66.4z M89.2,57.3
		c-0.5,0.9-1.6-1.1-3.5,1.4c-0.8,1.1-0.3,2.3-1.3,3.5c-1.1,1.3-2.2,2.3-1.3-1.3c0.9-3.6,0.4-2.1,0.9-3.7c0.5-1.7,2.1-7.7,2.7-8.9
		c0.8-1.8,1-2.6,3.2-5.8c0,0,1.5-1.9,1.8-2.2c1.2-1.2,5.5-3.3,3.4,4.6C93.3,51.3,92,52.7,89.2,57.3z"/>
	<path style="fill:#20201E;" d="M147.4,85.4c-0.3-0.7-1-1.6-3.2,1c-3.3,4.1-3,1.6-3.3-1c-0.1-0.4-0.4-2.6-1.9-3.3
		c-1.4-0.7-7-2.6-5.6-3.7c3.4-2.7,3.3-2.5,4.3-3.6c1.2-1.4,5.2-6.5,4.9-11.6c-0.4-5.9-8.8-5.3-8.8-5.3c-5.8,0.9-3.2,6,0.8,5.3
		c4.4-0.7,3.4,3.2,3.1,4.2c0,0-0.5,1.2-1.4,2.7c-1.3,2-3.2,4.6-4.3,5.9c-0.8,0.8-5.2,3.7-2,5.3c5.3,2.5,9.4,8.7,6.7,10.4
		c-1.9,1.2-16.9,8.1-20.3,9.6c-3.2,1.4-10.5,4.1-10.4,11.1c0.1,7.5,10.5,7.5,12.8,7.1c6.6-1.1,10.1-4.8,12.6-7.8
		c2.1-2.6,7.1-13,7.7-14.9c0.5-1.6,2.4-7.4,5.2-8.2C147.4,87.7,147.8,86.5,147.4,85.4z M137.7,67.4c0,0.1,0,0.1-0.1,0.2L137.7,67.4z
		 M136.6,95.7c0,0-5.5,11.6-6.2,12.7c-0.8,1.3-5.1,7.4-11.6,8.4c-6.4,0.9-9.6-1.6-9.8-4.8c-0.1-3,2-5.1,9.1-8.6
		c15.9-7.7,16.6-8.1,16.6-8.1C135.8,94.8,138,93.3,136.6,95.7z"/>
</g>
<path style="fill:#20201E;" d="M131.9,44.6c-1.4-0.5-5.5,1.6-4.2,5.2C129,53.4,138.3,47.1,131.9,44.6z"/>
</svg>
